<svg width="400" height="500" xmlns="http://www.w3.org/2000/svg">
  <!-- Definitions -->
  <defs>
    <!-- Soft Rainbow Gradient -->
    <radialGradient id="softRainbow" cx="50%" cy="50%" r="80%">
      <stop offset="0%" stop-color="#ffffff" stop-opacity="1" />
      <stop offset="40%" stop-color="#FFD6E8" />
      <stop offset="60%" stop-color="#D6E8FF" />
      <stop offset="80%" stop-color="#E8FFD6" />
      <stop offset="100%" stop-color="#FFFACD" />
    </radialGradient>

    <!-- Glow Effect -->
    <filter id="cloudGlow" x="-50%" y="-50%" width="200%" height="200%">
      <feGaussianBlur stdDeviation="5" result="blur" />
      <feMerge>
        <feMergeNode in="blur" />
        <feMergeNode in="SourceGraphic" />
      </feMerge>
    </filter>

    <!-- Card Shadow Filter -->
    <filter id="cardShadow" x="-20%" y="-20%" width="140%" height="140%">
      <feGaussianBlur in="SourceAlpha" stdDeviation="5" result="blur"/>
      <feOffset in="blur" dx="5" dy="5" result="offsetBlur"/>
      <feComponentTransfer>
        <feFuncA type="linear" slope="0.5"/>
      </feComponentTransfer>
      <feMerge>
        <feMergeNode in="offsetBlur"/>
        <feMergeNode in="SourceGraphic"/>
      </feMerge>
    </filter>

    <!-- Background Gradient -->
    <linearGradient id="bgGradient" x1="0%" y1="0%" x2="100%" y2="100%">
      <stop offset="0%" style="stop-color:#2A3A4A;stop-opacity:1"/>
      <stop offset="100%" style="stop-color:#0A0F12;stop-opacity:1"/>
    </linearGradient>

    <!-- Grid Pattern -->
    <pattern id="grid" width="20" height="20" patternUnits="userSpaceOnUse">
      <path d="M 20 0 L 0 0 0 20" fill="none" stroke="#FFFFFF" stroke-width="0.5" opacity="0.1"/>
    </pattern>

    <!-- Cloud Shape -->
    <g id="cloud">
      <circle cx="50" cy="50" r="20" fill="url(#softRainbow)" filter="url(#cloudGlow)" />
      <circle cx="70" cy="50" r="25" fill="url(#softRainbow)" filter="url(#cloudGlow)" />
      <circle cx="90" cy="50" r="20" fill="url(#softRainbow)" filter="url(#cloudGlow)" />
      <circle cx="65" cy="35" r="22" fill="url(#softRainbow)" filter="url(#cloudGlow)" />
    </g>
  </defs>

  <!-- Card Background -->
  <rect x="20" y="20" width="360" height="460" rx="20" fill="#1C2526" filter="url(#cardShadow)" stroke="#FFFFFF" stroke-width="2"/>
  
  <!-- Background with Grid -->
  <rect x="30" y="30" width="340" height="440" rx="15" fill="url(#bgGradient)"/>
  <rect x="30" y="30" width="340" height="440" rx="15" fill="url(#grid)"/>

  <!-- Main Icon (Centered with floating animation) -->
  <g transform="translate(125, 150) scale(3.5)">
    <animateTransform attributeName="transform"
                      type="translate"
                      values="0,0; 0,5; 0,0; 0,-5; 0,0"
                      dur="6s"
                      repeatCount="indefinite"
                      additive="sum"/>
    <!-- Main Icon Paths -->
    <path d="M32.9 11s-2.5-1.2-4.6-2.1c-2-.9-2.6-2.1-1.1-2.6c1.4-.5 4.7-.7 7.3-.6c1.1.1 4.6.3 4.6.3c2.6.1 2.8 1 .4 1.8L32.9 11" fill="#42ade2"/>
    <path d="M8.3 20.4s-2.6 1-2.8 2.2c-.3 1-1.2 14.7 56.7-17.6c3.4-1.9 1.7-4-3-4.5C45-1.1 48.5 0 8.3 20.4z" fill="#dae3ea"/>
    <path d="M21.1 13.8S8.3 10 4.1 8.6c-2.7-.9-4 2.1-4 2.1s5 12.2 5.5 11.9L21 14.7c.5-.3.5-.7.1-.9" fill="#42ade2"/>
    <path d="M34.8 25.5s-10.4.9-17.5 8.1c-.4.4-1.2 1.5.1 2.1c2.5.7 8.4 1.3 18.4-3.5l-1-6.7" fill="#c5d0d8"/>
    <path d="M35.9 32.1c-.9.3-1.9-.9-2.4-2.7c-.4-1.8-.1-3.5.8-3.8c.9-.3 1.9.9 2.4 2.7c.4 1.8.1 3.5-.8 3.8" fill="#94989b"/>
    <path d="M33.3 15.2c-2.5 1.1-3.7 1.7-5.1 4L17.8 34.8c-1.4 2.3-.4 3.4 2.2 2.6c2.6-.9 6.2-3.2 7.9-5.3l16.5-19.6c1.7-2.1 1.1-2.8-1.4-1.7l-9.7 4.4" fill="#42ade2"/>
    <g fill="#3e4347">
      <path d="M35.1 29.6c-.3-1.3-.9-2.3-1.6-2.6c-.1.7-.1 1.5.1 2.4c.3 1.3.9 2.3 1.6 2.6c.1-.7.1-1.5-.1-2.4"/>
      <path d="M54.4.7c-.5.8-3.2 3.1-3.2 3.1s.5.9 2.1.4c1.3-.4 2.6-1.6 3.3-3L54.4.7"/>
    </g>

    <!-- Additional Circles -->
    <circle cx="21.3" cy="17.4" r="1"/>
    <circle cx="24.9" cy="15.6" r="1"/>
    <circle cx="28.5" cy="13.7" r="1"/>
    <circle cx="32.2" cy="11.8" r="1"/>
    <circle cx="35.8" cy="9.9" r="1"/>
    <circle cx="39.4" cy="8.1" r="1"/>
    <circle cx="43" cy="6.2" r="1"/>
  </g>

  <!-- Clouds Animations -->
<svg width="400" height="500" xmlns="http://www.w3.org/2000/svg">
  <!-- Definitions -->
  <defs>
    <!-- Soft Rainbow Gradient -->
    <radialGradient id="softRainbow" cx="50%" cy="50%" r="80%">
      <stop offset="0%" stop-color="#ffffff" stop-opacity="1" />
      <stop offset="40%" stop-color="#FFD6E8" />
      <stop offset="60%" stop-color="#D6E8FF" />
      <stop offset="80%" stop-color="#E8FFD6" />
      <stop offset="100%" stop-color="#FFFACD" />
    </radialGradient>

    <!-- Glow Effect -->
    <filter id="cloudGlow" x="-50%" y="-50%" width="200%" height="200%">
      <feGaussianBlur stdDeviation="5" result="blur" />
      <feMerge>
        <feMergeNode in="blur" />
        <feMergeNode in="SourceGraphic" />
      </feMerge>
    </filter>

    <!-- Cloud Shape -->
    <g id="cloud">
      <circle cx="50" cy="50" r="20" fill="url(#softRainbow)" filter="url(#cloudGlow)" />
      <circle cx="70" cy="50" r="25" fill="url(#softRainbow)" filter="url(#cloudGlow)" />
      <circle cx="90" cy="50" r="20" fill="url(#softRainbow)" filter="url(#cloudGlow)" />
      <circle cx="65" cy="35" r="22" fill="url(#softRainbow)" filter="url(#cloudGlow)" />
    </g>
  </defs>

  <svg width="400" height="500" xmlns="http://www.w3.org/2000/svg">
  <!-- Definitions -->
  <defs>
    <!-- Soft Rainbow Gradient -->
    <radialGradient id="softRainbow" cx="50%" cy="50%" r="80%">
      <stop offset="0%" stop-color="#ffffff" stop-opacity="1" />
      <stop offset="40%" stop-color="#FFD6E8" />
      <stop offset="60%" stop-color="#D6E8FF" />
      <stop offset="80%" stop-color="#E8FFD6" />
      <stop offset="100%" stop-color="#FFFACD" />
    </radialGradient>

    <!-- Glow Effect -->
    <filter id="cloudGlow" x="-50%" y="-50%" width="200%" height="200%">
      <feGaussianBlur stdDeviation="5" result="blur" />
      <feMerge>
        <feMergeNode in="blur" />
        <feMergeNode in="SourceGraphic" />
      </feMerge>
    </filter>

    <!-- Cloud Shape -->
    <g id="cloud">
      <circle cx="50" cy="50" r="20" fill="url(#softRainbow)" filter="url(#cloudGlow)" />
      <circle cx="70" cy="50" r="25" fill="url(#softRainbow)" filter="url(#cloudGlow)" />
      <circle cx="90" cy="50" r="20" fill="url(#softRainbow)" filter="url(#cloudGlow)" />
      <circle cx="65" cy="35" r="22" fill="url(#softRainbow)" filter="url(#cloudGlow)" />
    </g>
  </defs>

  <!-- Clouds Animations with Opacity -->
  <use href="#cloud">
    <animateTransform attributeName="transform" type="translate" from="270 50" to="-10 90" dur="6s" repeatCount="indefinite" />
    <!-- Opacity Animation (Fades out at 80% and stays invisible until the next cycle) -->
    <animate attributeName="opacity" values="1; 0; 0" dur="6s" keyTimes="0; 0.8; 1" repeatCount="indefinite" />
  </use>

  <use href="#cloud" transform="scale(0.8)">
    <animateTransform attributeName="transform" type="translate" from="270 150" to="-10 290" dur="8.8s" repeatCount="indefinite" />
    <!-- Opacity Animation (Fades out at 80% and stays invisible until the next cycle) -->
    <animate attributeName="opacity" values="1; 0; 0" dur="8.8s" keyTimes="0; 0.8; 1" repeatCount="indefinite" />
  </use>

  <use href="#cloud" transform="scale(1.1)">
    <animateTransform attributeName="transform" type="translate" from="270 250" to="-10 220" dur="10.6s" repeatCount="indefinite" />
    <!-- Opacity Animation (Fades out at 80% and stays invisible until the next cycle) -->
    <animate attributeName="opacity" values="1; 0; 0" dur="10.6s" keyTimes="0; 0.8; 1" repeatCount="indefinite" />
  </use>
</svg>

</svg>


</svg>
